<?xml version="1.0" standalone="no"?>
<!DOCTYPE svg PUBLIC "-//W3C//DTD SVG 20010904//EN"
 "http://www.w3.org/TR/2001/REC-SVG-20010904/DTD/svg10.dtd">
<svg version="1.0" xmlns="http://www.w3.org/2000/svg"
 width="672.000000pt" height="672.000000pt" viewBox="0 0 672.000000 672.000000"
 preserveAspectRatio="xMidYMid meet">
<metadata>
Created by potrace 1.11, written by Peter Selinger 2001-2013
</metadata>
<g transform="translate(0.000000,672.000000) scale(0.100000,-0.100000)"
fill="#000000" stroke="none">
<path d="M3115 6594 c-502 -52 -835 -141 -1223 -329 -371 -180 -641 -372 -927
-659 -556 -559 -886 -1269 -956 -2056 -24 -272 0 -677 56 -938 182 -858 665
-1579 1395 -2083 63 -43 129 -90 147 -105 l31 -25 -50 118 c-175 413 -298 907
-349 1408 -16 157 -16 617 0 770 28 267 78 506 152 731 l40 121 122 -91 c67
-51 150 -109 185 -130 34 -21 62 -42 62 -45 0 -3 -59 -28 -130 -55 -72 -26
-130 -50 -130 -52 0 -3 14 -38 31 -78 l31 -74 71 29 c40 17 131 50 203 74
l130 43 105 -50 c508 -245 1096 -380 1709 -394 l225 -5 -145 49 c-356 122
-656 278 -935 486 -151 113 -407 367 -493 491 -113 162 -111 165 29 30 485
-470 1044 -759 1669 -864 361 -61 797 -52 1184 23 80 16 123 20 127 14 4 -6
12 -52 18 -102 48 -388 41 -824 -19 -1216 -53 -346 -172 -780 -294 -1073 -19
-45 -42 -100 -51 -122 l-17 -40 64 61 c34 34 115 99 179 146 671 494 1121
1192 1294 2010 56 261 80 666 56 938 -70 787 -400 1497 -956 2056 -286 287
-556 479 -927 659 -334 162 -669 261 -1048 311 -119 15 -570 27 -665 18z
m-2430 -3882 c0 -395 23 -600 100 -901 19 -74 35 -138 35 -142 0 -9 -47 4 -86
24 -16 8 -50 37 -75 64 -126 134 -193 351 -193 623 0 262 66 483 181 611 20
22 36 39 37 39 0 0 1 -143 1 -318z m5506 152 c22 -45 52 -126 66 -180 25 -92
27 -113 27 -304 0 -191 -2 -212 -27 -305 -60 -223 -174 -380 -298 -409 l-25
-5 37 147 c78 308 103 534 104 925 l0 299 38 -44 c21 -23 56 -80 78 -124z"/>
<path d="M2130 2203 c-57 -58 -83 -137 -83 -253 0 -52 5 -107 11 -122 11 -26
10 -27 -72 -67 -146 -71 -224 -171 -213 -276 3 -29 13 -67 22 -85 47 -90 192
-180 360 -222 77 -19 117 -22 270 -22 152 0 194 3 267 22 230 57 369 167 385
303 3 30 15 67 25 82 51 72 206 120 320 99 129 -24 228 -101 228 -177 0 -45
46 -130 92 -169 61 -53 168 -105 276 -133 87 -24 116 -26 282 -27 163 -1 196
2 275 23 267 69 411 210 376 368 -20 86 -115 177 -239 228 -53 22 -57 25 -52
52 3 15 5 75 5 133 0 99 -2 109 -33 174 -38 76 -76 106 -134 106 -97 0 -181
-174 -161 -337 l6 -53 -74 0 c-155 0 -356 -50 -457 -114 -24 -15 -61 -43 -82
-62 l-40 -36 -35 31 c-153 134 -437 134 -588 1 l-34 -30 -42 39 c-103 96 -289
158 -496 168 l-120 6 0 106 c0 101 -2 110 -33 175 -39 77 -76 106 -136 106
-31 0 -45 -7 -76 -37z m465 -468 c158 -25 281 -79 340 -148 57 -67 54 -119
-12 -185 -53 -52 -141 -94 -261 -124 -131 -33 -360 -31 -493 5 -53 14 -119 37
-148 51 -102 52 -162 130 -147 191 14 55 98 127 195 164 48 19 48 19 68 0 31
-31 94 -36 135 -11 19 12 40 33 48 47 13 24 18 25 99 25 47 0 127 -7 176 -15z
m1805 -15 c44 -62 113 -76 172 -36 l36 24 54 -22 c125 -51 188 -111 188 -179
0 -100 -108 -181 -305 -228 -275 -65 -627 -4 -749 131 -60 66 -60 113 -1 179
85 94 281 157 497 160 86 1 87 1 108 -29z"/>
<path d="M2984 779 l-29 -31 45 -38 c126 -110 330 -157 495 -115 83 21 194 77
233 117 l32 34 -34 33 -35 34 -32 -27 c-157 -132 -400 -139 -572 -16 -30 22
-59 40 -64 40 -5 0 -22 -14 -39 -31z"/>
</g>
</svg>
